<svg width="118" height="23" viewBox="0 0 118 23" fill="none" xmlns="http://www.w3.org/2000/svg">
<path d="M0.66 9.96C0.66 8.57333 0.96 7.34 1.56 6.26C2.16 5.16667 2.99333 4.32 4.06 3.72C5.14 3.10667 6.36 2.8 7.72 2.8C9.38667 2.8 10.8133 3.24 12 4.12C13.1867 5 13.98 6.2 14.38 7.72H10.62C10.34 7.13333 9.94 6.68667 9.42 6.38C8.91333 6.07333 8.33333 5.92 7.68 5.92C6.62667 5.92 5.77333 6.28667 5.12 7.02C4.46667 7.75333 4.14 8.73333 4.14 9.96C4.14 11.1867 4.46667 12.1667 5.12 12.9C5.77333 13.6333 6.62667 14 7.68 14C8.33333 14 8.91333 13.8467 9.42 13.54C9.94 13.2333 10.34 12.7867 10.62 12.2H14.38C13.98 13.72 13.1867 14.92 12 15.8C10.8133 16.6667 9.38667 17.1 7.72 17.1C6.36 17.1 5.14 16.8 4.06 16.2C2.99333 15.5867 2.16 14.74 1.56 13.66C0.96 12.58 0.66 11.3467 0.66 9.96ZM18.1944 4.68C17.5944 4.68 17.101 4.50667 16.7144 4.16C16.341 3.8 16.1544 3.36 16.1544 2.84C16.1544 2.30667 16.341 1.86667 16.7144 1.52C17.101 1.16 17.5944 0.979999 18.1944 0.979999C18.781 0.979999 19.261 1.16 19.6344 1.52C20.021 1.86667 20.2144 2.30667 20.2144 2.84C20.2144 3.36 20.021 3.8 19.6344 4.16C19.261 4.50667 18.781 4.68 18.1944 4.68ZM19.8944 5.84V17H16.4744V5.84H19.8944ZM29.1728 5.72C30.4795 5.72 31.5195 6.14667 32.2928 7C33.0795 7.84 33.4728 9 33.4728 10.48V17H30.0728V10.94C30.0728 10.1933 29.8795 9.61333 29.4928 9.2C29.1061 8.78667 28.5861 8.58 27.9328 8.58C27.2795 8.58 26.7595 8.78667 26.3728 9.2C25.9861 9.61333 25.7928 10.1933 25.7928 10.94V17H22.3728V5.84H25.7928V7.32C26.1395 6.82667 26.6061 6.44 27.1928 6.16C27.7795 5.86667 28.4395 5.72 29.1728 5.72ZM46.3694 11.24C46.3694 11.56 46.3494 11.8933 46.3094 12.24H38.5694C38.6227 12.9333 38.8427 13.4667 39.2294 13.84C39.6294 14.2 40.116 14.38 40.6894 14.38C41.5427 14.38 42.136 14.02 42.4694 13.3H46.1094C45.9227 14.0333 45.5827 14.6933 45.0894 15.28C44.6094 15.8667 44.0027 16.3267 43.2694 16.66C42.536 16.9933 41.716 17.16 40.8094 17.16C39.716 17.16 38.7427 16.9267 37.8894 16.46C37.036 15.9933 36.3694 15.3267 35.8894 14.46C35.4094 13.5933 35.1694 12.58 35.1694 11.42C35.1694 10.26 35.4027 9.24667 35.8694 8.38C36.3494 7.51333 37.016 6.84667 37.8694 6.38C38.7227 5.91333 39.7027 5.68 40.8094 5.68C41.8894 5.68 42.8494 5.90667 43.6894 6.36C44.5294 6.81333 45.1827 7.46 45.6494 8.3C46.1294 9.14 46.3694 10.12 46.3694 11.24ZM42.8694 10.34C42.8694 9.75333 42.6694 9.28667 42.2694 8.94C41.8694 8.59333 41.3694 8.42 40.7694 8.42C40.196 8.42 39.7094 8.58667 39.3094 8.92C38.9227 9.25333 38.6827 9.72667 38.5894 10.34H42.8694Z" fill="white"/>
<path d="M53.1336 17.14C52.1603 17.14 51.2803 16.9733 50.4936 16.64C49.7203 16.3067 49.1069 15.8267 48.6536 15.2C48.2003 14.5733 47.9669 13.8333 47.9536 12.98H50.9536C50.9936 13.5533 51.1936 14.0067 51.5536 14.34C51.9269 14.6733 52.4336 14.84 53.0736 14.84C53.7269 14.84 54.2403 14.6867 54.6136 14.38C54.9869 14.06 55.1736 13.6467 55.1736 13.14C55.1736 12.7267 55.0469 12.3867 54.7936 12.12C54.5403 11.8533 54.2203 11.6467 53.8336 11.5C53.4603 11.34 52.9403 11.1667 52.2736 10.98C51.3669 10.7133 50.6269 10.4533 50.0536 10.2C49.4936 9.93333 49.0069 9.54 48.5936 9.02C48.1936 8.48667 47.9936 7.78 47.9936 6.9C47.9936 6.07333 48.2003 5.35333 48.6136 4.74C49.0269 4.12667 49.6069 3.66 50.3536 3.34C51.1003 3.00667 51.9536 2.84 52.9136 2.84C54.3536 2.84 55.5203 3.19333 56.4136 3.9C57.3203 4.59333 57.8203 5.56667 57.9136 6.82H54.8336C54.8069 6.34 54.6003 5.94667 54.2136 5.64C53.8403 5.32 53.3403 5.16 52.7136 5.16C52.1669 5.16 51.7269 5.3 51.3936 5.58C51.0736 5.86 50.9136 6.26667 50.9136 6.8C50.9136 7.17333 51.0336 7.48667 51.2736 7.74C51.5269 7.98 51.8336 8.18 52.1936 8.34C52.5669 8.48667 53.0869 8.66 53.7536 8.86C54.6603 9.12667 55.4003 9.39333 55.9736 9.66C56.5469 9.92667 57.0403 10.3267 57.4536 10.86C57.8669 11.3933 58.0736 12.0933 58.0736 12.96C58.0736 13.7067 57.8803 14.4 57.4936 15.04C57.1069 15.68 56.5403 16.1933 55.7936 16.58C55.0469 16.9533 54.1603 17.14 53.1336 17.14ZM63.3011 7.52C63.6611 7.01333 64.1544 6.59333 64.7811 6.26C65.4211 5.91333 66.1478 5.74 66.9611 5.74C67.9078 5.74 68.7611 5.97333 69.5211 6.44C70.2944 6.90667 70.9011 7.57333 71.3411 8.44C71.7944 9.29333 72.0211 10.2867 72.0211 11.42C72.0211 12.5533 71.7944 13.56 71.3411 14.44C70.9011 15.3067 70.2944 15.98 69.5211 16.46C68.7611 16.94 67.9078 17.18 66.9611 17.18C66.1478 17.18 65.4278 17.0133 64.8011 16.68C64.1878 16.3467 63.6878 15.9267 63.3011 15.42V22.28H60.5011V5.92H63.3011V7.52ZM69.1611 11.42C69.1611 10.7533 69.0211 10.18 68.7411 9.7C68.4744 9.20667 68.1144 8.83333 67.6611 8.58C67.2211 8.32667 66.7411 8.2 66.2211 8.2C65.7144 8.2 65.2344 8.33333 64.7811 8.6C64.3411 8.85333 63.9811 9.22667 63.7011 9.72C63.4344 10.2133 63.3011 10.7933 63.3011 11.46C63.3011 12.1267 63.4344 12.7067 63.7011 13.2C63.9811 13.6933 64.3411 14.0733 64.7811 14.34C65.2344 14.5933 65.7144 14.72 66.2211 14.72C66.7411 14.72 67.2211 14.5867 67.6611 14.32C68.1144 14.0533 68.4744 13.6733 68.7411 13.18C69.0211 12.6867 69.1611 12.1 69.1611 11.42ZM80.2958 5.76C81.1358 5.76 81.8824 5.94667 82.5358 6.32C83.1891 6.68 83.6958 7.22 84.0558 7.94C84.4291 8.64667 84.6158 9.5 84.6158 10.5V17H81.8158V10.88C81.8158 10 81.5958 9.32667 81.1558 8.86C80.7158 8.38 80.1158 8.14 79.3558 8.14C78.5824 8.14 77.9691 8.38 77.5158 8.86C77.0758 9.32667 76.8558 10 76.8558 10.88V17H74.0558V2.2H76.8558V7.3C77.2158 6.82 77.6958 6.44667 78.2958 6.18C78.8958 5.9 79.5624 5.76 80.2958 5.76ZM97.5784 11.22C97.5784 11.62 97.5518 11.98 97.4984 12.3H89.3984C89.4651 13.1 89.7451 13.7267 90.2384 14.18C90.7318 14.6333 91.3384 14.86 92.0584 14.86C93.0984 14.86 93.8384 14.4133 94.2784 13.52H97.2984C96.9784 14.5867 96.3651 15.4667 95.4584 16.16C94.5518 16.84 93.4384 17.18 92.1184 17.18C91.0518 17.18 90.0918 16.9467 89.2384 16.48C88.3984 16 87.7384 15.3267 87.2584 14.46C86.7918 13.5933 86.5584 12.5933 86.5584 11.46C86.5584 10.3133 86.7918 9.30667 87.2584 8.44C87.7251 7.57333 88.3784 6.90667 89.2184 6.44C90.0584 5.97333 91.0251 5.74 92.1184 5.74C93.1718 5.74 94.1118 5.96667 94.9384 6.42C95.7784 6.87333 96.4251 7.52 96.8784 8.36C97.3451 9.18667 97.5784 10.14 97.5784 11.22ZM94.6784 10.42C94.6651 9.7 94.4051 9.12667 93.8984 8.7C93.3918 8.26 92.7718 8.04 92.0384 8.04C91.3451 8.04 90.7584 8.25333 90.2784 8.68C89.8118 9.09333 89.5251 9.67333 89.4184 10.42H94.6784ZM102.422 7.64C102.782 7.05333 103.249 6.59333 103.822 6.26C104.409 5.92667 105.076 5.76 105.822 5.76V8.7H105.082C104.202 8.7 103.536 8.90667 103.082 9.32C102.642 9.73333 102.422 10.4533 102.422 11.48V17H99.6222V5.92H102.422V7.64ZM118.008 11.22C118.008 11.62 117.981 11.98 117.928 12.3H109.828C109.895 13.1 110.175 13.7267 110.668 14.18C111.161 14.6333 111.768 14.86 112.488 14.86C113.528 14.86 114.268 14.4133 114.708 13.52H117.728C117.408 14.5867 116.795 15.4667 115.888 16.16C114.981 16.84 113.868 17.18 112.548 17.18C111.481 17.18 110.521 16.9467 109.668 16.48C108.828 16 108.168 15.3267 107.688 14.46C107.221 13.5933 106.988 12.5933 106.988 11.46C106.988 10.3133 107.221 9.30667 107.688 8.44C108.155 7.57333 108.808 6.90667 109.648 6.44C110.488 5.97333 111.455 5.74 112.548 5.74C113.601 5.74 114.541 5.96667 115.368 6.42C116.208 6.87333 116.855 7.52 117.308 8.36C117.775 9.18667 118.008 10.14 118.008 11.22ZM115.108 10.42C115.095 9.7 114.835 9.12667 114.328 8.7C113.821 8.26 113.201 8.04 112.468 8.04C111.775 8.04 111.188 8.25333 110.708 8.68C110.241 9.09333 109.955 9.67333 109.848 10.42H115.108Z" fill="#FF0000"/>
</svg>
